<svg width="80" height="80" viewBox="0 0 80 80" fill="none" xmlns="http://www.w3.org/2000/svg">
<path d="M13.5766 33.8847L38.3491 9.51828C39.5305 8.35631 41.4301 8.37214 42.5919 9.55363L66.5059 33.8729C67.6607 35.0473 67.6528 36.933 66.4881 38.0977L65.1988 39.387C64.0049 40.5809 62.0588 40.5574 60.8895 39.334C58.3539 36.6812 54.5572 32.7324 51.3926 29.5388C49.812 27.9438 48.3803 26.5282 47.3399 25.5554C46.8242 25.0732 46.3837 24.6801 46.062 24.4271C45.9158 24.3121 45.7331 24.1765 45.5546 24.089L45.5497 24.0866C45.4922 24.0582 45.2424 23.9347 44.9262 23.9675C44.7121 23.9896 44.4265 24.09 44.2169 24.3605C44.0267 24.6059 44 24.8638 44 25V25.0051V25.0108V25.0172V25.0243V25.032V25.0403V25.0493V25.0589V25.0691V25.08V25.0915V25.1036V25.1164V25.1298V25.1438V25.1584V25.1737V25.1896V25.206V25.2231V25.2408V25.2592V25.2781V25.2976V25.3177V25.3385V25.3598V25.3817V25.4042V25.4273V25.451V25.4753V25.5002V25.5257V25.5517V25.5783V25.6055V25.6333V25.6616V25.6905V25.72V25.75V25.7806V25.8118V25.8435V25.8758V25.9087V25.9421V25.976V26.0105V26.0456V26.0812V26.1173V26.154V26.1912V26.229V26.2673V26.3061V26.3454V26.3853V26.4257V26.4667V26.5081V26.5501V26.5926V26.6356V26.6791V26.7232V26.7677V26.8128V26.8583V26.9044V26.9509V26.998V27.0456V27.0936V27.1422V27.1912V27.2407V27.2908V27.3413V27.3922V27.4437V27.4956V27.5481V27.6009V27.6543V27.7081V27.7624V27.8172V27.8724V27.9281V27.9843V28.0409V28.098V28.1555V28.2134V28.2719V28.3307V28.39V28.4498V28.51V28.5706V28.6317V28.6932V28.7551V28.8175V28.8802V28.9435V29.0071V29.0712V29.1356V29.2005V29.2659V29.3316V29.3977V29.4643V29.5312V29.5986V29.6663V29.7345V29.8031V29.872V29.9414V30.0111V30.0812V30.1518V30.2227V30.294V30.3656V30.4377V30.5101V30.5829V30.6561V30.7296V30.8036V30.8778V30.9525V31.0275V31.1029V31.1786V31.2547V31.3311V31.4079V31.4851V31.5626V31.6404V31.7186V31.7971V31.876V31.9552V32.0347V32.1146V32.1948V32.2753V32.3562V32.4374V32.5189V32.6007V32.6829V32.7653V32.8481V32.9312V33.0146V33.0983V33.1823V33.2666V33.3513V33.4362V33.5214V33.6069V33.6927V33.7788V33.8652V33.9519V34.0388V34.1261V34.2136V34.3014V34.3895V34.4778V34.5665V34.6554V34.7445V34.834V34.9237V35.0136V35.1038V35.1943V35.285V35.376V35.4673V35.5588V35.6505V35.7425V35.8347V35.9272V36.0199V36.1128V36.206V36.2994V36.393V36.4869V36.581V36.6753V36.7698V36.8646V36.9595V37.0547V37.1501V37.2458V37.3416V37.4376V37.5339V37.6303V37.7269V37.8238V37.9208V38.018V38.1155V38.2131V38.3109V38.4089V38.5071V38.6054V38.704V38.8027V38.9016V39.0006V39.0999V39.1993V39.2989V39.3986V39.4985V39.5986V39.6988V39.7992V39.8997V40.0004V40.1012V40.2022V40.3034V40.4046V40.5061V40.6076V40.7093V40.8111V40.9131V41.0152V41.1174V41.2198V41.3223V41.4249V41.5276V41.6305V41.7334V41.8365V41.9397V42.043V42.1464V42.2499V42.3536V42.4573V42.5611V42.665V42.7691V42.8732V42.9774V43.0817V43.1861V43.2905V43.3951V43.4997V43.6044V43.7092V43.8141V43.919V44.024V44.1291V44.2343V44.3395V44.4448V44.5501V44.6555V44.7609V44.8664V44.972V45.0776V45.1832V45.2889V45.3947V45.5005V45.6063V45.7121V45.818V45.924V46.0299V46.1359V46.2419V46.348V46.454V46.5601V46.6662V46.7723V46.8785V46.9846V47.0908V47.1969V47.3031V47.4093V47.5154V47.6216V47.7278V47.8339V47.9401V48.0462V48.1524V48.2585V48.3646V48.4707V48.5768V48.6828V48.7889V48.8949V49.0008V49.1068V49.2127V49.3186V49.4244V49.5302V49.636V49.7417V49.8474V49.953V50.0586V50.1641V50.2696V50.375V50.4804V50.5857V50.6909V50.7961V50.9012V51.0063V51.1113V51.2162V51.321V51.4258V51.5304V51.635V51.7396V51.844V51.9483V52.0526V52.1568V52.2608V52.3648V52.4687V52.5725V52.6761V52.7797V52.8832V52.9866V53.0898V53.193V53.296V53.3989V53.5017V53.6044V53.7069V53.8093V53.9116V54.0138V54.1159V54.2178V54.3195V54.4212V54.5227V54.624V54.7252V54.8263V54.9272V55.028V55.1286V55.2291V55.3294V55.4295V55.5295V55.6294V55.729V55.8285V55.9279V56.027V56.126V56.2248V56.3235V56.4219V56.5202V56.6183V56.7162V56.8139V56.9114V57.0088V57.1059V57.2029V57.2996V57.3962V57.4925V57.5887V57.6846V57.7803V57.8759V57.9712V58.0663V58.1611V58.2558V58.3502V58.4444V58.5384V58.6322V58.7257V58.819V58.9121V59.0049V59.0975V59.1899V59.282V59.3739V59.4655V59.5568V59.648V59.7388V59.8295V59.9198V60.0099V60.0998V60.1893V60.2786V60.3677V60.4565V60.545V60.6332V60.7211V60.8088V60.8962V60.9833V61.0702V61.1567V61.243V61.3289V61.4146V61.5V61.5851V61.6699V61.7543V61.8385V61.9224V62.006V62.0892V62.1722V62.2548V62.3371V62.4191V62.5008V62.5822V62.6632V62.7439V62.8243V62.9044V62.9841V63.0635V63.1425V63.2212V63.2996V63.3776V63.4553V63.5326V63.6096V63.6863V63.7626V63.8385V63.9141V63.9893V64.0641V64.1386V64.2127V64.2865V64.3598V64.4329V64.5055V64.5777V64.6496V64.7211V64.7922V64.863V64.9333V65.0033V65.0728V65.142V65.2108V65.2792V65.3471V65.4147V65.4819V65.5487V65.615V65.681V65.7465V65.8116V65.8764V65.9406V66.0045C44 67.6599 42.6583 69 41 69H39C37.3417 69 36 67.6599 36 66.0045V65.9406V65.8764V65.8116V65.7465V65.681V65.615V65.5487V65.4819V65.4147V65.3471V65.2792V65.2108V65.142V65.0728V65.0033V64.9333V64.863V64.7922V64.7211V64.6496V64.5777V64.5055V64.4329V64.3598V64.2865V64.2127V64.1386V64.0641V63.9893V63.9141V63.8385V63.7626V63.6863V63.6096V63.5326V63.4553V63.3776V63.2996V63.2212V63.1425V63.0635V62.9841V62.9044V62.8243V62.7439V62.6632V62.5822V62.5008V62.4191V62.3371V62.2548V62.1722V62.0892V62.006V61.9224V61.8385V61.7543V61.6699V61.5851V61.5V61.4146V61.3289V61.243V61.1567V61.0702V60.9833V60.8962V60.8088V60.7211V60.6332V60.545V60.4565V60.3677V60.2786V60.1893V60.0998V60.0099V59.9198V59.8295V59.7388V59.648V59.5568V59.4655V59.3739V59.282V59.1899V59.0975V59.0049V58.9121V58.819V58.7257V58.6322V58.5384V58.4444V58.3502V58.2558V58.1611V58.0663V57.9712V57.8759V57.7803V57.6846V57.5887V57.4925V57.3962V57.2996V57.2029V57.1059V57.0088V56.9114V56.8139V56.7162V56.6183V56.5202V56.4219V56.3235V56.2248V56.126V56.027V55.9279V55.8285V55.729V55.6294V55.5295V55.4295V55.3294V55.2291V55.1286V55.028V54.9272V54.8263V54.7252V54.624V54.5227V54.4212V54.3195V54.2178V54.1159V54.0138V53.9116V53.8093V53.7069V53.6044V53.5017V53.3989V53.296V53.193V53.0898V52.9866V52.8832V52.7797V52.6761V52.5725V52.4687V52.3648V52.2608V52.1568V52.0526V51.9483V51.844V51.7396V51.635V51.5304V51.4258V51.321V51.2162V51.1113V51.0063V50.9012V50.7961V50.6909V50.5857V50.4804V50.375V50.2696V50.1641V50.0586V49.953V49.8474V49.7417V49.636V49.5302V49.4244V49.3186V49.2127V49.1068V49.0008V48.8949V48.7889V48.6828V48.5768V48.4707V48.3646V48.2585V48.1524V48.0462V47.9401V47.8339V47.7278V47.6216V47.5154V47.4093V47.3031V47.1969V47.0908V46.9846V46.8785V46.7723V46.6662V46.5601V46.454V46.348V46.2419V46.1359V46.0299V45.924V45.818V45.7121V45.6063V45.5005V45.3947V45.2889V45.1832V45.0776V44.972V44.8664V44.7609V44.6555V44.5501V44.4448V44.3395V44.2343V44.1291V44.024V43.919V43.8141V43.7092V43.6044V43.4997V43.3951V43.2905V43.1861V43.0817V42.9774V42.8732V42.7691V42.665V42.5611V42.4573V42.3536V42.2499V42.1464V42.043V41.9397V41.8365V41.7334V41.6305V41.5276V41.4249V41.3223V41.2198V41.1174V41.0152V40.9131V40.8111V40.7093V40.6076V40.5061V40.4046V40.3034V40.2022V40.1012V40.0004V39.8997V39.7992V39.6988V39.5986V39.4985V39.3986V39.2989V39.1993V39.0999V39.0006V38.9016V38.8027V38.704V38.6054V38.5071V38.4089V38.3109V38.2131V38.1155V38.018V37.9208V37.8238V37.7269V37.6303V37.5339V37.4376V37.3416V37.2458V37.1501V37.0547V36.9595V36.8646V36.7698V36.6753V36.581V36.4869V36.393V36.2994V36.206V36.1128V36.0199V35.9272V35.8347V35.7425V35.6505V35.5588V35.4673V35.376V35.285V35.1943V35.1038V35.0136V34.9237V34.834V34.7445V34.6554V34.5665V34.4778V34.3895V34.3014V34.2136V34.1261V34.0388V33.9519V33.8652V33.7788V33.6927V33.6069V33.5214V33.4362V33.3513V33.2666V33.1823V33.0983V33.0146V32.9312V32.8481V32.7653V32.6829V32.6007V32.5189V32.4374V32.3562V32.2753V32.1948V32.1146V32.0347V31.9552V31.876V31.7971V31.7186V31.6404V31.5626V31.4851V31.4079V31.3311V31.2547V31.1786V31.1029V31.0275V30.9525V30.8778V30.8036V30.7296V30.6561V30.5829V30.5101V30.4377V30.3656V30.294V30.2227V30.1518V30.0812V30.0111V29.9414V29.872V29.8031V29.7345V29.6663V29.5986V29.5312V29.4643V29.3977V29.3316V29.2659V29.2005V29.1356V29.0712V29.0071V28.9435V28.8802V28.8175V28.7551V28.6932V28.6317V28.5706V28.51V28.4498V28.39V28.3307V28.2719V28.2134V28.1555V28.098V28.0409V27.9843V27.9281V27.8724V27.8172V27.7624V27.7081V27.6543V27.6009V27.5481V27.4956V27.4437V27.3922V27.3413V27.2908V27.2407V27.1912V27.1422V27.0936V27.0456V26.998V26.9509V26.9044V26.8583V26.8128V26.7677V26.7232V26.6791V26.6356V26.5926V26.5501V26.5081V26.4667V26.4257V26.3853V26.3454V26.3061V26.2673V26.229V26.1912V26.154V26.1173V26.0812V26.0456V26.0105V25.976V25.9421V25.9087V25.8758V25.8435V25.8118V25.7806V25.75V25.72V25.6905V25.6616V25.6333V25.6055V25.5783V25.5517V25.5257V25.5002V25.4753V25.451V25.4273V25.4042V25.3817V25.3598V25.3385V25.3177V25.2976V25.2781V25.2592V25.2408V25.2231V25.206V25.1896V25.1737V25.1584V25.1438V25.1298V25.1164V25.1036V25.0915V25.08V25.0691V25.0589V25.0493V25.0403V25.032V25.0243V25.0172V25.0108V25.0051V25C36 24.8638 35.9733 24.6059 35.7831 24.3605C35.5735 24.09 35.2879 23.9896 35.0738 23.9675C34.7576 23.9347 34.5078 24.0582 34.4503 24.0866L34.4454 24.089C34.2669 24.1765 34.0842 24.3121 33.938 24.4271C33.6163 24.6801 33.1758 25.0732 32.6601 25.5554C31.6197 26.5282 30.188 27.9438 28.6074 29.5388C25.4428 32.7324 21.6461 36.6812 19.1105 39.334C17.9412 40.5574 15.9951 40.5809 14.8012 39.387L13.559 38.1448C12.3806 36.9664 12.3885 35.0533 13.5766 33.8847Z" fill="#F8F6ED" stroke="black" stroke-width="2"/>
</svg>
